<svg width="19" height="18" viewBox="0 0 19 18" fill="none" xmlns="http://www.w3.org/2000/svg">
<path fill-rule="evenodd" clip-rule="evenodd" d="M9.4074 1.43801C5.06846 1.43801 1.55106 4.89146 1.55106 9.15151C1.55106 11.6751 2.78538 13.9156 4.6936 15.3229V13.3939C4.6936 11.4769 6.27643 9.92286 8.22895 9.92286H10.5859C12.5384 9.92286 14.1212 11.4769 14.1212 13.3939V15.3229C16.0294 13.9156 17.2637 11.6751 17.2637 9.15151C17.2637 4.89146 13.7463 1.43801 9.4074 1.43801ZM13.3356 15.8331V13.3939C13.3356 11.9029 12.1045 10.6942 10.5859 10.6942H8.22895C6.71032 10.6942 5.47923 11.9029 5.47923 13.3939V15.8331C6.63479 16.4894 7.97642 16.865 9.4074 16.865C10.8384 16.865 12.18 16.4894 13.3356 15.8331ZM0.765427 9.15151C0.765427 4.46546 4.63457 0.666664 9.4074 0.666664C14.1802 0.666664 18.0494 4.46546 18.0494 9.15151C18.0494 13.8376 14.1802 17.6364 9.4074 17.6364C4.63457 17.6364 0.765427 13.8376 0.765427 9.15151ZM9.01458 3.75206C8.1468 3.75206 7.44332 4.44275 7.44332 5.29476V6.83746C7.44332 7.68947 8.1468 8.38016 9.01458 8.38016H9.80022C10.668 8.38016 11.3715 7.68947 11.3715 6.83746V5.29476C11.3715 4.44275 10.668 3.75206 9.80022 3.75206H9.01458ZM9.01458 2.98071C7.7129 2.98071 6.65768 4.01675 6.65768 5.29476V6.83746C6.65768 8.11548 7.7129 9.15151 9.01458 9.15151H9.80022C11.1019 9.15151 12.1571 8.11548 12.1571 6.83746V5.29476C12.1571 4.01675 11.1019 2.98071 9.80022 2.98071H9.01458Z" fill="white" fill-opacity="0.5"/>
</svg>
